<svg width="320" height="127" viewBox="0 0 320 127" fill="none" xmlns="http://www.w3.org/2000/svg">
<path d="M137.764 35.7029L120.441 61.5827C119.936 62.4128 120.458 63.4918 121.414 63.5981L155.595 67.262L137.764 35.7029ZM121.46 52.3656L133.817 32.0539L121.239 24.4206C120.801 24.155 120.244 24.4737 120.244 24.99V52.0187C120.244 52.6877 121.112 52.9367 121.46 52.3656ZM123.239 70.3233L155.145 84.876C156.015 85.2828 157.008 84.6386 157.008 83.6708V72.7687L123.6 69.0666C122.87 68.9836 122.578 69.9946 123.239 70.3233ZM136.57 27.5284L149.688 3.79839C150.4 2.62633 149.099 1.26668 147.919 1.949L123.167 18.3196C122.762 18.5885 122.775 19.1928 123.189 19.4452L136.57 27.5284ZM159.634 29.2184H177.558L161.871 1.26502C161.357 0.421674 160.495 0 159.634 0C158.772 0 157.911 0.421674 157.397 1.26502L141.71 29.2184H159.634ZM198.029 24.4206L185.45 32.0555L197.807 52.3673C198.154 52.9384 199.023 52.6894 199.023 52.0187V24.99C199.023 24.4737 198.467 24.155 198.029 24.4206ZM182.698 27.5284L196.079 19.4435C196.494 19.1912 196.506 18.5869 196.1 18.3179L171.349 1.949C170.169 1.26668 168.867 2.62633 169.58 3.79839L182.698 27.5284ZM195.667 69.0666L162.26 72.767V83.6691C162.26 84.6386 163.253 85.2811 164.123 84.8744L196.028 70.3216C196.69 69.9946 196.398 68.9836 195.667 69.0666ZM181.503 35.7029L163.675 67.262L197.855 63.5981C198.812 63.4902 199.334 62.4128 198.828 61.5827L181.503 35.7029ZM159.634 34.5308H143.151L159.634 63.7077L176.117 34.5308H159.634Z" fill="#E8443C"/>
<path d="M82.4644 73.0449C82.4644 73.0449 73.7604 72.0209 68.7684 66.9649C61.7924 59.9249 56.0324 48.4689 51.6804 39.7649V70.8049H38.2404C40.4804 70.4849 42.3364 69.5249 43.6804 67.6049V27.2849C42.3364 25.3649 40.4804 24.4049 38.2404 24.0209H46.1764C47.1364 24.0209 50.9764 24.5329 57.4404 32.4689C61.5364 37.5249 65.6324 44.4369 68.8964 50.5809C72.0964 44.4369 76.1924 37.5249 80.2884 32.4689C86.7524 24.5329 90.6564 24.0209 91.6164 24.0209H99.4884C97.3124 24.4049 95.3924 25.3649 94.0484 27.2849V67.6049C95.3924 69.5249 97.3124 70.4849 99.4884 70.8689H86.1124V39.7649C84.5124 42.6449 75.1684 54.2289 75.0404 60.3089V60.5009C75.0404 66.6449 80.4804 72.0209 82.4644 73.0449ZM156.911 70.8689L133.487 70.8049C135.855 69.5249 136.559 67.5409 136.559 65.3009C136.559 63.2529 135.919 61.0769 135.471 59.0929H117.743C117.295 60.5009 116.143 65.6849 116.143 68.6929C116.143 69.9089 116.335 70.8049 116.911 70.8049H103.343C106.863 70.4209 121.839 36.1169 121.839 26.0689C121.839 25.2369 121.775 24.5329 121.519 24.0849C121.775 24.0209 122.863 23.5729 124.527 23.5729C127.279 23.5729 131.503 24.8529 135.599 31.4449C140.783 39.8289 149.551 67.2209 156.911 70.8689ZM133.807 52.8849C131.823 46.8049 129.455 40.6609 127.215 34.7089C125.423 38.9969 122.479 46.3569 120.047 52.8849H133.807ZM194.102 70.9329C185.142 70.9329 175.542 70.3569 168.886 65.7489C164.854 62.9329 160.758 56.0849 160.758 47.8289C160.822 28.4369 174.326 23.9569 185.078 23.9569C191.158 23.9569 196.47 25.4289 197.814 26.3889L199.542 33.9409C195.894 32.2129 192.182 31.4449 188.79 31.4449C187.894 31.4449 186.998 31.5089 186.102 31.6369C175.862 32.9169 170.742 40.0209 170.742 46.9329C170.742 53.9729 176.054 60.6929 186.55 60.6929C187.382 60.6929 188.214 60.6289 189.11 60.5649L189.046 50.3249C188.918 50.0689 189.366 47.0609 185.846 47.0609H199.798C199.798 53.1409 199.606 59.1569 199.606 65.2369C199.99 67.4129 201.014 69.5249 202.998 70.8689L194.102 70.9329ZM228.556 70.8689H206.86C209.1 70.5489 211.02 69.5249 212.364 67.5409V27.3489C211.02 25.3649 209.1 24.3409 206.86 24.0209H228.556C226.316 24.3409 224.396 25.3649 223.052 27.3489V67.5409C224.396 69.5249 226.316 70.5489 228.556 70.8689ZM255.824 70.9969C250.448 70.9969 244.56 69.9089 240.016 66.3889C234.896 62.4209 232.4 54.9969 232.4 47.5729C232.4 39.9569 235.024 32.3409 240.4 28.4369C244.88 25.1089 250.64 24.0849 255.824 24.0849C261.968 24.0849 267.28 25.5569 268.688 26.5809L270.8 34.2609C267.024 32.4689 263.312 31.7009 259.92 31.7009C259.024 31.7009 258.128 31.7649 257.232 31.8929C247.504 33.1089 242.576 40.3409 242.576 47.5729C242.576 54.7409 247.504 61.9729 257.232 63.2529C258.064 63.3809 258.96 63.3809 259.856 63.3809C263.248 63.3809 266.96 62.6129 270.8 60.8849L268.688 68.5649C267.28 69.5249 261.968 70.9969 255.824 70.9969ZM83.7327 126.677C78.8687 126.677 75.0927 125.589 70.6127 123.989L68.4367 115.221C68.5647 115.413 72.6607 117.013 76.6287 118.229C78.6767 118.869 81.1727 119.637 83.5407 119.637C84.9487 119.637 86.3567 119.381 87.5727 118.613C88.7887 117.845 89.6207 116.629 89.6207 115.029V114.837C89.6207 110.293 83.6047 108.373 80.1487 106.645C72.5327 102.933 69.1407 99.4769 69.1407 93.0129V92.3089C69.3327 84.6289 76.6287 80.2769 85.3327 79.9569H86.0367C90.0047 79.9569 93.3967 80.9169 97.2367 81.8769L99.2207 89.5569C98.6447 88.5329 93.2687 86.6129 88.6607 86.6129C85.6527 86.6129 82.9007 87.3809 82.0047 89.6849C81.8127 90.1969 81.6847 90.7089 81.6847 91.1569C81.6847 93.7809 84.9487 95.1889 88.9167 97.1089C95.3807 100.117 102.037 103.957 102.165 111.701V112.149C102.165 121.109 94.1007 126.613 83.7327 126.677ZM155.129 126.869H133.433C135.737 126.549 137.593 125.525 138.937 123.541V102.549H122.233V123.541C123.577 125.525 125.433 126.549 127.673 126.869H105.977C108.217 126.549 110.137 125.525 111.481 123.541V83.3489C110.137 81.3649 108.217 80.3409 105.977 80.0209H127.673C125.433 80.3409 123.577 81.3649 122.233 83.3489V95.7009H138.937V83.3489C137.593 81.3649 135.737 80.3409 133.433 80.0209H155.129C152.889 80.3409 151.033 81.3649 149.689 83.3489V123.541C151.033 125.525 152.889 126.549 155.129 126.869ZM180.138 126.869C165.866 126.869 158.954 115.669 158.954 104.213C158.954 92.2449 166.506 80.0209 181.034 80.0209C184.234 80.0209 187.306 80.4689 189.034 82.9649H188.842C187.306 82.9649 175.722 83.2849 171.946 93.1409C170.666 96.5329 170.09 99.6049 170.09 102.293C170.09 110.549 175.338 115.285 180.714 115.285C184.938 115.285 189.162 112.341 190.89 105.941C191.274 104.533 191.402 103.253 191.402 101.973C191.402 93.9729 185.13 88.3409 185.13 88.3409C186.346 88.0209 187.562 87.8929 188.65 87.8929C197.162 87.8929 202.154 96.2769 202.154 105.301C202.154 115.669 195.498 126.869 180.138 126.869ZM227.434 126.869H211.37V83.2849C210.026 81.3009 208.17 80.3409 205.994 80.0209H233.642C241.322 80.0209 247.658 86.3569 247.658 94.1009C247.658 101.781 241.13 108.885 233.386 108.885H222.122V123.733C223.466 125.589 225.258 126.549 227.434 126.869ZM226.602 104.533C232.042 104.533 236.458 100.053 236.458 94.6129C236.458 89.1729 232.042 84.6929 226.602 84.6929H222.122V104.533H226.602Z" fill="white"/>
</svg>
